<svg width="30" height="27" viewBox="0 0 30 27" fill="none" xmlns="http://www.w3.org/2000/svg">
<g clip-path="url(#clip0_61_4144)">
<path d="M28.7932 19.1342H8.89895L9.89784 17.0967L26.4947 17.0665C27.056 17.0665 27.537 16.6651 27.6373 16.1097L29.9357 3.22528C29.9958 2.88736 29.9056 2.53941 29.6851 2.27509C29.5762 2.14501 29.4402 2.04023 29.2868 1.96801C29.1333 1.8958 28.966 1.85787 28.7965 1.85688L7.68292 1.78662L7.50252 0.936803C7.38893 0.394796 6.90118 0 6.34662 0H1.18515C0.87238 0 0.572424 0.124431 0.351265 0.345919C0.130105 0.567407 0.00585938 0.867809 0.00585938 1.18104C0.00585938 1.49427 0.130105 1.79467 0.351265 2.01616C0.572424 2.23765 0.87238 2.36208 1.18515 2.36208H5.39116L6.17958 6.11598L8.12056 15.5275L5.62167 19.6126C5.4919 19.7881 5.41374 19.9963 5.39603 20.2139C5.37831 20.4315 5.42176 20.6497 5.52145 20.8439C5.7219 21.242 6.12613 21.4929 6.57379 21.4929H8.67178C8.22452 22.0879 7.98293 22.8125 7.98359 23.5572C7.98359 25.4509 9.52034 26.99 11.4112 26.99C13.3021 26.99 14.8388 25.4509 14.8388 23.5572C14.8388 22.8112 14.5916 22.0851 14.1506 21.4929H19.5326C19.0853 22.0879 18.8437 22.8125 18.8444 23.5572C18.8444 25.4509 20.3811 26.99 22.272 26.99C24.1629 26.99 25.6996 25.4509 25.6996 23.5572C25.6996 22.8112 25.4524 22.0851 25.0114 21.4929H28.7965C29.4446 21.4929 29.9758 20.9643 29.9758 20.3119C29.9739 19.999 29.8484 19.6996 29.6269 19.4789C29.4053 19.2583 29.1056 19.1344 28.7932 19.1342V19.1342ZM8.17401 4.11524L27.4101 4.17881L25.5259 14.7446L10.4157 14.7714L8.17401 4.11524ZM11.4112 24.6145C10.8299 24.6145 10.3555 24.1394 10.3555 23.5572C10.3555 22.9751 10.8299 22.5 11.4112 22.5C11.9925 22.5 12.4669 22.9751 12.4669 23.5572C12.4669 23.8376 12.3557 24.1066 12.1577 24.3048C11.9597 24.5031 11.6912 24.6145 11.4112 24.6145V24.6145ZM22.272 24.6145C21.6907 24.6145 21.2163 24.1394 21.2163 23.5572C21.2163 22.9751 21.6907 22.5 22.272 22.5C22.8533 22.5 23.3277 22.9751 23.3277 23.5572C23.3277 23.8376 23.2165 24.1066 23.0185 24.3048C22.8205 24.5031 22.552 24.6145 22.272 24.6145V24.6145Z" fill="#EDF2EF"/>
</g>
<defs>
<clipPath id="clip0_61_4144">
<rect width="30" height="27" fill="white"/>
</clipPath>
</defs>
</svg>