<svg width="26" height="26" viewBox="0 0 26 26" fill="none" xmlns="http://www.w3.org/2000/svg">
<g clip-path="url(#clip0_151_1037)" filter="url(#filter0_i_151_1037)">
<path fill-rule="evenodd" clip-rule="evenodd" d="M13.0007 0.120361C5.88766 0.120361 0.121094 5.88692 0.121094 13C0.121094 20.1131 5.88766 25.8796 13.0007 25.8796C20.1138 25.8796 25.8804 20.1131 25.8804 13C25.8804 5.88692 20.1138 0.120361 13.0007 0.120361ZM12.4153 5.97474C12.1048 5.97474 11.8069 6.0981 11.5874 6.31768C11.3678 6.53726 11.2444 6.83508 11.2444 7.14561C11.2444 7.45615 11.3678 7.75397 11.5874 7.97355C11.8069 8.19313 12.1048 8.31649 12.4153 8.31649H13.0007C13.3113 8.31649 13.6091 8.19313 13.8287 7.97355C14.0482 7.75397 14.1716 7.45615 14.1716 7.14561C14.1716 6.83508 14.0482 6.53726 13.8287 6.31768C13.6091 6.0981 13.3113 5.97474 13.0007 5.97474H12.4153ZM10.659 10.6582C10.3484 10.6582 10.0506 10.7816 9.83104 11.0012C9.61146 11.2208 9.4881 11.5186 9.4881 11.8291C9.4881 12.1397 9.61146 12.4375 9.83104 12.657C10.0506 12.8766 10.3484 13 10.659 13H11.8298V16.5126H10.659C10.3484 16.5126 10.0506 16.636 9.83104 16.8556C9.61146 17.0751 9.4881 17.373 9.4881 17.6835C9.4881 17.994 9.61146 18.2918 9.83104 18.5114C10.0506 18.731 10.3484 18.8544 10.659 18.8544H15.3425C15.653 18.8544 15.9508 18.731 16.1704 18.5114C16.39 18.2918 16.5133 17.994 16.5133 17.6835C16.5133 17.373 16.39 17.0751 16.1704 16.8556C15.9508 16.636 15.653 16.5126 15.3425 16.5126H14.1716V11.8291C14.1716 11.5186 14.0482 11.2208 13.8287 11.0012C13.6091 10.7816 13.3113 10.6582 13.0007 10.6582H10.659Z" fill="white" fill-opacity="0.85"/>
</g>
<defs>
<filter id="filter0_i_151_1037" x="0" y="0" width="26" height="26" filterUnits="userSpaceOnUse" color-interpolation-filters="sRGB">
<feFlood flood-opacity="0" result="BackgroundImageFix"/>
<feBlend mode="normal" in="SourceGraphic" in2="BackgroundImageFix" result="shape"/>
<feColorMatrix in="SourceAlpha" type="matrix" values="0 0 0 0 0 0 0 0 0 0 0 0 0 0 0 0 0 0 127 0" result="hardAlpha"/>
<feOffset/>
<feGaussianBlur stdDeviation="1.5"/>
<feComposite in2="hardAlpha" operator="arithmetic" k2="-1" k3="1"/>
<feColorMatrix type="matrix" values="0 0 0 0 0.176471 0 0 0 0 0.94902 0 0 0 0 0.45098 0 0 0 0.67 0"/>
<feBlend mode="normal" in2="shape" result="effect1_innerShadow_151_1037"/>
</filter>
<clipPath id="clip0_151_1037">
<rect width="26" height="26" fill="white"/>
</clipPath>
</defs>
</svg>
