<svg width="18" height="19" viewBox="0 0 18 19" fill="none" xmlns="http://www.w3.org/2000/svg">
<g clip-path="url(#clip0_80_10504)">
<path d="M5.78544 6.96667C5.95593 6.96667 6.11944 7.0334 6.24 7.15217C6.36056 7.27095 6.42829 7.43204 6.42829 7.60001V15.2C6.42829 15.368 6.36056 15.5291 6.24 15.6478C6.11944 15.7666 5.95593 15.8333 5.78544 15.8333C5.61494 15.8333 5.45143 15.7666 5.33087 15.6478C5.21031 15.5291 5.14258 15.368 5.14258 15.2V7.60001C5.14258 7.43204 5.21031 7.27095 5.33087 7.15217C5.45143 7.0334 5.61494 6.96667 5.78544 6.96667V6.96667ZM8.99972 6.96667C9.17022 6.96667 9.33373 7.0334 9.45429 7.15217C9.57485 7.27095 9.64258 7.43204 9.64258 7.60001V15.2C9.64258 15.368 9.57485 15.5291 9.45429 15.6478C9.33373 15.7666 9.17022 15.8333 8.99972 15.8333C8.82922 15.8333 8.66571 15.7666 8.54515 15.6478C8.42459 15.5291 8.35686 15.368 8.35686 15.2V7.60001C8.35686 7.43204 8.42459 7.27095 8.54515 7.15217C8.66571 7.0334 8.82922 6.96667 8.99972 6.96667V6.96667ZM12.8569 7.60001C12.8569 7.43204 12.7891 7.27095 12.6686 7.15217C12.548 7.0334 12.3845 6.96667 12.214 6.96667C12.0435 6.96667 11.88 7.0334 11.7594 7.15217C11.6389 7.27095 11.5711 7.43204 11.5711 7.60001V15.2C11.5711 15.368 11.6389 15.5291 11.7594 15.6478C11.88 15.7666 12.0435 15.8333 12.214 15.8333C12.3845 15.8333 12.548 15.7666 12.6686 15.6478C12.7891 15.5291 12.8569 15.368 12.8569 15.2V7.60001Z" fill="#CF3F31"/>
<path fill-rule="evenodd" clip-rule="evenodd" d="M17.3569 3.8C17.3569 4.13594 17.2214 4.45812 16.9803 4.69567C16.7392 4.93321 16.4121 5.06667 16.0711 5.06667H15.4283V16.4667C15.4283 17.1385 15.1574 17.7829 14.6751 18.258C14.1929 18.7331 13.5388 19 12.8569 19H5.14258C4.46059 19 3.80654 18.7331 3.3243 18.258C2.84207 17.7829 2.57115 17.1385 2.57115 16.4667V5.06667H1.92829C1.5873 5.06667 1.26027 4.93321 1.01916 4.69567C0.778037 4.45812 0.642578 4.13594 0.642578 3.8V2.53333C0.642578 2.19739 0.778037 1.87521 1.01916 1.63766C1.26027 1.40012 1.5873 1.26667 1.92829 1.26667H6.42829C6.42829 0.930726 6.56375 0.608544 6.80487 0.370998C7.04599 0.133452 7.37301 0 7.71401 0L10.2854 0C10.6264 0 10.9535 0.133452 11.1946 0.370998C11.4357 0.608544 11.5711 0.930726 11.5711 1.26667H16.0711C16.4121 1.26667 16.7392 1.40012 16.9803 1.63766C17.2214 1.87521 17.3569 2.19739 17.3569 2.53333V3.8ZM4.00858 5.06667L3.85686 5.1414V16.4667C3.85686 16.8026 3.99232 17.1248 4.23344 17.3623C4.47456 17.5999 4.80159 17.7333 5.14258 17.7333H12.8569C13.1979 17.7333 13.5249 17.5999 13.766 17.3623C14.0071 17.1248 14.1426 16.8026 14.1426 16.4667V5.1414L13.9909 5.06667H4.00858ZM1.92829 3.8V2.53333H16.0711V3.8H1.92829Z" fill="#CF3F31"/>
</g>
<defs>
<clipPath id="clip0_80_10504">
<rect width="18" height="19" fill="white"/>
</clipPath>
</defs>
</svg>