<svg width="8" height="8" viewBox="0 0 8 8" fill="none" xmlns="http://www.w3.org/2000/svg">
<g clip-path="url(#clip0_153_1732)">
<path d="M3.7997 0.00125564C3.1577 0.00900564 1.77745 0.114506 1.00545 0.822756C0.431198 1.39176 0.230698 2.23301 0.207198 3.27326C0.187698 4.30976 0.164198 6.25626 2.04045 6.78626V7.59351C2.04045 7.59351 2.0287 7.91651 2.2422 7.98276C2.5052 8.06601 2.65495 7.81751 2.90495 7.55051L3.3712 7.02326C4.65495 7.13001 5.6382 6.88401 5.75145 6.84751C6.01195 6.76426 7.4792 6.57676 7.71895 4.63001C7.96495 2.61951 7.5992 1.35276 6.93895 0.779756H6.93495C6.7357 0.596256 5.93495 0.0127556 4.14595 0.00625564C4.14595 0.00625564 4.0132 -0.00274436 3.7997 0.00100564V0.00125564ZM3.8217 0.566506C4.00395 0.565256 4.1147 0.573006 4.1147 0.573006C5.62895 0.577006 6.3517 1.03276 6.5222 1.18626C7.0782 1.66276 7.3647 2.80476 7.15495 4.48326C6.9557 6.11076 5.7657 6.21376 5.54545 6.28401C5.4517 6.31401 4.5857 6.52751 3.4947 6.45726C3.4947 6.45726 2.6822 7.43776 2.4282 7.69026C2.38795 7.73451 2.34095 7.74751 2.31095 7.74101C2.26795 7.73051 2.25495 7.67726 2.25745 7.60426L2.2652 6.26451C0.673948 5.82451 0.767698 4.16426 0.784698 3.29701C0.804198 2.42976 0.966947 1.72026 1.45145 1.23976C2.1037 0.650006 3.2757 0.570506 3.8212 0.566506H3.8217ZM3.9417 1.43351C3.9286 1.43337 3.91561 1.43584 3.90347 1.44075C3.89133 1.44566 3.88028 1.45293 3.87096 1.46213C3.86164 1.47133 3.85423 1.48229 3.84917 1.49437C3.8441 1.50645 3.84148 1.51941 3.84145 1.53251C3.84145 1.58851 3.88695 1.63276 3.9417 1.63276C4.18957 1.62804 4.43593 1.67245 4.66656 1.76341C4.89719 1.85438 5.10753 1.9901 5.28545 2.16276C5.6487 2.51551 5.8257 2.98951 5.83245 3.60926C5.83245 3.66401 5.8767 3.70951 5.9327 3.70951V3.70551C5.95909 3.70557 5.98444 3.6952 6.00322 3.67666C6.022 3.65811 6.03268 3.6329 6.03295 3.60651C6.04509 3.31479 5.99778 3.02366 5.8939 2.7508C5.79003 2.47794 5.63175 2.22905 5.4287 2.01926C5.03295 1.63251 4.53145 1.43326 3.9417 1.43326V1.43351ZM2.62395 1.66276C2.55318 1.65242 2.48101 1.66662 2.41945 1.70301H2.4142C2.27126 1.78679 2.1425 1.89269 2.0327 2.01676C1.94145 2.12226 1.89195 2.22901 1.87895 2.33176C1.8712 2.39301 1.87645 2.45426 1.8947 2.51276L1.9012 2.51676C2.00395 2.81876 2.1382 3.10926 2.3022 3.38276C2.51345 3.76699 2.77344 4.12235 3.0757 4.44001L3.0847 4.45301L3.09895 4.46351L3.10795 4.47401L3.11845 4.48301C3.43726 4.78615 3.79347 5.04735 4.17845 5.26026C4.61845 5.49976 4.88545 5.61301 5.0457 5.66001V5.66251C5.0927 5.67676 5.13545 5.68326 5.17845 5.68326C5.31502 5.67325 5.44431 5.6178 5.5457 5.52576C5.6692 5.41592 5.77392 5.28663 5.8557 5.14301V5.14051C5.93245 4.99601 5.90645 4.85926 5.7957 4.76676C5.5739 4.57288 5.33406 4.40068 5.07945 4.25251C4.90895 4.16001 4.7357 4.21601 4.66545 4.30976L4.5157 4.49851C4.43895 4.59226 4.29945 4.57926 4.29945 4.57926L4.29545 4.58176C3.2552 4.31601 2.9777 3.26276 2.9777 3.26276C2.9777 3.26276 2.9647 3.11951 3.06095 3.04651L3.24845 2.89551C3.3382 2.82251 3.4007 2.64951 3.30445 2.47876C3.1573 2.22379 2.98547 1.98389 2.79145 1.76251C2.74903 1.71031 2.68952 1.6748 2.62345 1.66226L2.62395 1.66276ZM4.1147 1.95976C3.98195 1.95976 3.98195 2.16026 4.11595 2.16026C4.28102 2.16293 4.44394 2.19811 4.59541 2.26379C4.74688 2.32946 4.88392 2.42434 4.9987 2.54301C5.1034 2.65851 5.18386 2.79385 5.23531 2.94102C5.28675 3.08818 5.30814 3.24417 5.2982 3.39976C5.29865 3.42609 5.3094 3.45119 5.32814 3.46969C5.34688 3.4882 5.37211 3.49863 5.39845 3.49876L5.40245 3.50401C5.42897 3.50381 5.45436 3.49318 5.47312 3.47443C5.49188 3.45567 5.5025 3.43028 5.5027 3.40376C5.5117 3.00651 5.3882 2.67326 5.14595 2.40626C4.90245 2.13926 4.5627 1.98951 4.12895 1.95976H4.1147V1.95976ZM4.27895 2.49876C4.1422 2.49476 4.13695 2.69926 4.27245 2.70326C4.60195 2.72026 4.76195 2.88676 4.78295 3.22926C4.7834 3.25525 4.79402 3.28004 4.81252 3.29831C4.83103 3.31658 4.85595 3.32688 4.88195 3.32701H4.88595C4.89932 3.32643 4.91244 3.3232 4.92454 3.3175C4.93665 3.3118 4.9475 3.30375 4.95646 3.29381C4.96542 3.28388 4.97231 3.27225 4.97673 3.25962C4.98115 3.24699 4.98301 3.23361 4.9822 3.22026C4.9587 2.77376 4.7152 2.52226 4.28295 2.49901H4.27895V2.49876Z" fill="#EDF2EF"/>
</g>
<defs>
<clipPath id="clip0_153_1732">
<rect width="8" height="8" fill="white"/>
</clipPath>
</defs>
</svg>